<svg xmlns="http://www.w3.org/2000/svg" width="798.553" height="988.19" viewBox="0 0 798.553 988.19"><defs><style>.a{fill:#182361;}</style></defs><path class="a" d="M1722.252,2369.008a21.369,21.369,0,0,0,10.726,17.159,22.379,22.379,0,0,0,11.091,3.332c6.8,0,12.818-4.171,17.742-12.417,2.911-4.879,3.5-12.291,2.574-17.094a21.016,21.016,0,0,0-8.426-12.9,20,20,0,0,0-8.286-3.5,20.86,20.86,0,0,0-16.253,4.424A24.546,24.546,0,0,0,1722.252,2369.008Zm22.288-23.5a16.882,16.882,0,0,1,2.78.231,17.867,17.867,0,0,1,7.386,3.127,18.809,18.809,0,0,1,7.555,11.542c.85,4.393.331,11.146-2.3,15.552-6.844,11.465-15.559,14.259-25.911,8.314a19.213,19.213,0,0,1-9.64-15.435,22.364,22.364,0,0,1,8.365-19.122A18.969,18.969,0,0,1,1744.54,2345.5Zm583.351,193.784c-15.128.911-24.711,10.774-25.007,25.736-.2,10.262,1.749,17.163,5.966,21.1a14.323,14.323,0,0,0,10.144,3.62c.744,0,1.513-.039,2.3-.115a51.582,51.582,0,0,0,15.926-3.829c6.332-2.806,10.776-7.047,13.21-12.6,3.245-7.4,2.194-16.442-2.734-23.592C2342.933,2542.686,2335.569,2538.829,2327.891,2539.288Zm20.568,33.023c-2.211,5.045-6.284,8.911-12.1,11.491a50.075,50.075,0,0,1-15.267,3.655c-4.584.467-8.2-.536-10.769-2.933-3.688-3.438-5.463-9.987-5.274-19.458.272-13.723,9.076-22.764,22.977-23.6.366-.022.731-.031,1.094-.031,6.487,0,12.7,3.458,16.808,9.412C2350.428,2557.376,2351.4,2565.6,2348.458,2572.312Zm68.863,148.364c6.673-13.267,4.288-24.189-6.9-31.59-4.2-2.772-10.017-3.43-16.4-1.832-10.773,2.683-21.2,11.157-27.216,22.112l-.074.165c-5.017,14.334-.473,20.759,7.89,25.989a24.141,24.141,0,0,0,12.844,3.441,31.927,31.927,0,0,0,8.659-1.233A34.324,34.324,0,0,0,2417.321,2720.675Zm-21.771,14.954c-7.289,2.055-14.5,1.344-19.783-1.962-6.55-4.1-12.014-8.967-7.021-23.325,5.741-10.4,15.617-18.439,25.8-20.975,5.789-1.445,11.006-.9,14.689,1.541,10.274,6.8,12.345,16.479,6.157,28.778A32.116,32.116,0,0,1,2395.55,2735.629Zm-173.733-65.43c2.682-4.934,3.158-11.334,1.3-17.555a25.218,25.218,0,0,0-11.876-15.2,17.259,17.259,0,0,0-14.1-.913c-6.818,2.355-12.784,8.311-16.372,16.335-5.927,13.258-2.844,23.37,8.914,29.24a20.6,20.6,0,0,0,9.256,2.129C2207.836,2684.237,2217.055,2678.968,2221.817,2670.2Zm-31.176,9.957c-10.838-5.414-13.421-14.045-7.9-26.395,3.344-7.474,8.845-13,15.1-15.167a16.769,16.769,0,0,1,5.471-.957,14.6,14.6,0,0,1,6.924,1.736,23.033,23.033,0,0,1,10.814,13.9c1.69,5.664,1.277,11.456-1.128,15.881C2214.089,2679.894,2200.4,2685.034,2190.641,2680.156Zm-31.107-396.023a17.87,17.87,0,0,0,8.067,1.889,18.937,18.937,0,0,0,16.57-9.6,15.548,15.548,0,0,0,.8-11.894,21.325,21.325,0,0,0-10.055-12.583,14.663,14.663,0,0,0-11.885-.87,20.147,20.147,0,0,0-11.38,11.209C2147.453,2271.863,2150.183,2279.418,2159.534,2284.133Zm-5.912-20.967a17.969,17.969,0,0,1,10.114-10.029,12.968,12.968,0,0,1,4.295-.743,12.4,12.4,0,0,1,5.866,1.476,19.113,19.113,0,0,1,9,11.284,13.389,13.389,0,0,1-.62,10.223c-4.044,7.438-14.217,10.619-21.773,6.808C2152.122,2277.961,2149.872,2271.74,2153.622,2263.166Zm38.108,309.176-.845-.083c-12.109-1.185-19.378-.133-23.589,3.408-2.752,2.314-4.284,5.794-4.686,10.639a13.831,13.831,0,0,0,3.882,10.858,14.934,14.934,0,0,0,10.784,4.526q.415,0,.83-.024c4.49-.237,8-1.867,10.423-4.844,3.778-4.64,4.9-12.592,3.322-23.633Zm-4.87,23.1c-2.027,2.484-5.008,3.848-8.868,4.053a12.8,12.8,0,0,1-9.948-3.846,11.663,11.663,0,0,1-3.281-9.157c.357-4.293,1.6-7.2,3.919-9.15,2.708-2.278,7.025-3.375,13.581-3.375,2.248,0,4.762.131,7.563.386C2191.14,2584.313,2190.143,2591.406,2186.86,2595.44Zm174.151-258.593c.437,0,.873-.013,1.312-.037,7.137-.379,12.7-2.959,16.538-7.668,6.046-7.424,7.82-20.234,5.276-38.075l-.12-.847-.846-.083c-19.575-1.913-31.306-.25-38.033,5.409-4.409,3.709-6.765,9.083-7.414,16.911a21.9,21.9,0,0,0,6.154,17.2A23.712,23.712,0,0,0,2361.01,2336.847Zm-21.133-24.208c.6-7.211,2.708-12.11,6.644-15.42,4.552-3.83,11.752-5.672,22.658-5.672,3.837,0,8.136.229,12.935.677,2.284,16.769.629,28.72-4.922,35.534-3.437,4.216-8.478,6.531-14.984,6.878a21.6,21.6,0,0,1-16.78-6.5A19.74,19.74,0,0,1,2339.877,2312.639Zm-107.317,287.3a18.731,18.731,0,0,0,7.916,1.639c8.583,0,18.083-4.886,22.528-12.521a20.976,20.976,0,0,0,1.751-16.155,19.744,19.744,0,0,0-9.333-12.206c-10.624-5.672-21.728-1.026-28.987,12.125-3.975,7.2-5.183,12.949-3.687,17.562C2224.021,2594.33,2227.234,2597.457,2232.56,2599.935Zm-4.239-26.059c6.724-12.186,16.48-16.386,26.086-11.26a17.564,17.564,0,0,1,8.268,10.876,18.762,18.762,0,0,1-1.539,14.457c-5.285,9.085-19,14.04-27.67,10.007-4.751-2.212-7.585-4.91-8.666-8.252C2223.5,2585.7,2224.655,2580.521,2228.321,2573.877Zm-94.97,403.053c5.811,0,12-1.077,16.227-3.108a19.035,19.035,0,0,0,9.405-10.937,14.619,14.619,0,0,0-.707-11.434v0a14.442,14.442,0,0,0-2.049-2.944c-5.892-6.583-17.279-10.251-25.385-8.191-9.476,2.414-15.336,14.629-16.906,18.316a12.119,12.119,0,0,0,.1,9.124c1.381,3.319,4.254,5.91,8.307,7.492A31.624,31.624,0,0,0,2133.351,2976.929Zm-17.321-10.02a10.023,10.023,0,0,1-.11-7.422c3.033-7.117,8.685-15.338,15.451-17.064a17.526,17.526,0,0,1,4.3-.5c6.714,0,14.606,3.193,18.95,8.043a11.894,11.894,0,0,1,2.309,12.234,16.784,16.784,0,0,1-8.283,9.656c-6.688,3.21-19.089,3.868-25.519,1.36C2119.586,2971.828,2117.2,2969.71,2116.03,2966.909Zm182.87-471.087a30.206,30.206,0,0,0,9.839,1.737,22.2,22.2,0,0,0,20.382-12.3c3.6-7.577,3.054-19.46-10.339-28.011l-.062-.037c-7.715-4.212-15.589-4.293-22.18-.213a22.652,22.652,0,0,0-10.464,19.577C2286.292,2484.6,2290.786,2491.407,2298.9,2495.822Zm-1.228-36.972a17.57,17.57,0,0,1,9.342-2.669,22.322,22.322,0,0,1,10.643,2.926c12.165,7.784,12.73,18.442,9.515,25.211-3.726,7.836-13.94,14.134-27.41,9.514-7.24-3.958-11.333-10.107-11.525-17.318A20.423,20.423,0,0,1,2297.673,2458.851Zm-384.894,367.667a21.656,21.656,0,0,0,13.743,5.032,21.2,21.2,0,0,0,3.815-.346c6.969-1.273,13.233-5.877,17.191-12.64l.03-.054c4.407-8.645,8.694-21.177-4.865-30.177-3.249-2.153-8.329-2.234-14.307-.227-7.948,2.67-17.958,9.621-21.151,18.567C1905.254,2812.222,1908.207,2822.8,1912.779,2826.518Zm-3.511-19.109c2.948-8.261,12.33-14.727,19.8-17.235a23.1,23.1,0,0,1,7.224-1.329,9.4,9.4,0,0,1,5.214,1.31c9.336,6.194,10.614,14.623,4.144,27.331-3.636,6.2-9.357,10.419-15.7,11.574a19.277,19.277,0,0,1-15.814-4.234C1910.284,2821.685,1907.6,2812.085,1909.268,2807.409Zm-36.625,25.993c-3.039-2.014-7.784-2.1-13.363-.218-7.4,2.487-16.72,8.961-19.694,17.3-1.85,5.18.906,15.047,5.172,18.523a20.193,20.193,0,0,0,12.816,4.692,19.983,19.983,0,0,0,3.562-.325,23.865,23.865,0,0,0,16.023-11.774l.028-.057C1881.3,2853.48,1885.292,2841.8,1872.643,2833.4Zm2.639,27.113a21.7,21.7,0,0,1-14.53,10.711,17.881,17.881,0,0,1-14.634-3.916c-3.56-2.9-6.042-11.774-4.5-16.093,2.73-7.651,11.422-13.64,18.345-15.965a21.425,21.425,0,0,1,6.69-1.235,8.652,8.652,0,0,1,4.8,1.207C1880.2,2841.029,1881.349,2848.6,1875.282,2860.515ZM2153.339,3058.2c-3.035-2.012-7.779-2.092-13.359-.219-7.4,2.487-16.721,8.961-19.7,17.3-1.848,5.183.908,15.05,5.177,18.523a20.186,20.186,0,0,0,12.812,4.692,19.757,19.757,0,0,0,3.56-.322,23.871,23.871,0,0,0,16.028-11.778l.031-.057C2161.994,3078.279,2165.99,3066.6,2153.339,3058.2Zm2.641,27.113a21.712,21.712,0,0,1-14.534,10.713,17.834,17.834,0,0,1-14.627-3.917c-3.562-2.9-6.044-11.772-4.5-16.093,2.73-7.651,11.426-13.64,18.347-15.965a21.349,21.349,0,0,1,6.688-1.235,8.636,8.636,0,0,1,4.8,1.207C2160.9,3065.827,2162.045,3073.391,2155.98,3085.313ZM2041,2715.261a18.414,18.414,0,0,0,11.811-10.017,21.164,21.164,0,0,0,.463-15.856,16.241,16.241,0,0,0-8.221-9.451c-4.077-1.849-10.023-1.36-15.513,1.3-5.436,2.631-9.236,6.793-10.425,11.424a17.5,17.5,0,0,0-.452,2.661,19.285,19.285,0,0,0,6.729,16.651,16.77,16.77,0,0,0,10.81,3.986A17.053,17.053,0,0,0,2041,2715.261Zm-20.184-19.737a14.808,14.808,0,0,1,.393-2.323c1.027-4.008,4.4-7.654,9.264-10a21.068,21.068,0,0,1,8.944-2.181,11.54,11.54,0,0,1,4.747.909,14.09,14.09,0,0,1,7.085,8.224,18.948,18.948,0,0,1-.4,14.18,16.29,16.29,0,0,1-10.451,8.838,14.591,14.591,0,0,1-13.631-2.876A17.1,17.1,0,0,1,2020.811,2695.525Zm-2.985-102.413a28.086,28.086,0,0,0,4.075.314c5.209,0,9.26-1.708,12.068-5.1,4.438-5.365,4.416-13.833,2.979-18.133-2.616-7.852-11.458-15.5-20.131-17.409-5.218-1.149-9.591-.051-12.626,3.194-5.183,5.416-6.439,16.889-3.8,22.145C2003.666,2584.611,2009.96,2591.962,2017.826,2593.112Zm-12.075-35.627.011-.011a9.547,9.547,0,0,1,7.239-2.953,15.767,15.767,0,0,1,3.353.386c7.868,1.737,16.186,8.9,18.546,15.976,1.236,3.711,1.269,11.375-2.594,16.045-2.985,3.611-7.754,4.973-14.169,4.027-7.049-1.029-12.79-7.817-15.812-13.825C2000.056,2572.628,2001.335,2562.089,2005.752,2557.485Zm349.939,322.362c-9.824-5.271-21.981-5.25-30.242.052-6.3,4.042-9.539,10.693-9.124,18.732l.028.2c.353,1.427.664,2.8.96,4.115,2.5,11.081,4.3,19.087,24.605,22.661a10.967,10.967,0,0,0,1.921.166c8.923,0,20.1-9.767,21.326-16.011C2369.008,2890.213,2360.881,2882.627,2355.691,2879.847Zm7.355,29.5c-1.117,5.677-12.947,15.479-20.757,14.121-18.887-3.326-20.385-9.979-22.869-21-.294-1.3-.6-2.649-.943-4.053-.439-9.188,4.176-14.136,8.132-16.676,7.626-4.892,18.907-4.884,28.07.031C2359.335,2884.269,2366.615,2891.172,2363.046,2909.346Zm-352.137-509.781c-1.872,4.239-7.211,18.782,2.607,27.957A17.747,17.747,0,0,0,2026,2432.6c10.108,0,20.109-7.88,24.92-12.3,5.11-4.694,5.235-14.947,2.151-21.576-2.27-4.877-13.378-10.5-19.808-10.046C2024.879,2389.278,2013.293,2394.166,2010.909,2399.566Zm22.506-8.717c.205-.015.417-.024.638-.024,5.648,0,15.222,4.873,17.057,8.819,2.7,5.808,2.689,15.054-1.647,19.042-6.4,5.885-22.59,18.349-34.479,7.241-8.763-8.193-3.824-21.571-2.1-25.476C2014.878,2395.933,2025.841,2391.394,2033.415,2390.849Zm223.795,602.9c2.873-5.57,3.577-10.669,2.1-15.161-1.744-5.3-6.42-9.739-14.294-13.578-8.333-4.067-16.116-4.814-22.515-2.156-5.758,2.395-10.155,7.534-12.715,14.866-1.217,3.491-1.58,7.573-1.137,12.844.88,10.552,9.078,18.881,18.665,18.961l.3,0C2240.268,3009.528,2252.4,3003.066,2257.21,2993.748Zm-29.59,13.6-.288,0c-8.48-.072-15.74-7.525-16.53-16.965-.415-4.953-.091-8.747,1.025-11.937,2.348-6.729,6.325-11.426,11.5-13.575,5.816-2.412,12.989-1.688,20.751,2.1,7.319,3.572,11.633,7.595,13.181,12.3,1.289,3.909.625,8.445-1.964,13.469C2250.847,3001.369,2239.5,3007.349,2227.621,3007.349ZM2110.788,2580.44c7.252-.806,13.961-6.657,17.087-14.906l.045-.156c1.945-8.994-4.282-21.82-9.377-25.427a14.276,14.276,0,0,0-11.5-2.578c-5.674,1.162-11.474,5.764-15.52,12.308-3.238,5.245-.229,16.78,3.19,22.116,3.731,5.686,8.774,8.738,14.346,8.738A16.093,16.093,0,0,0,2110.788,2580.44Zm-14.266-9.835c-3.08-4.807-5.823-15.463-3.162-19.772,2.881-4.668,8.1-10.094,14.113-11.325a12.121,12.121,0,0,1,9.831,2.225c4.507,3.193,10.213,15.034,8.525,23.1-2.855,7.453-8.843,12.724-15.278,13.439C2105.123,2578.854,2100.158,2576.145,2096.522,2570.605Zm-30.206,208.906a18.3,18.3,0,0,0,2.319-.153c7.589-.968,15.2-6.26,19.392-13.485,6.11-10.532,4.87-18.44-3.792-24.174a18.771,18.771,0,0,0-15.315-2.621c-7.3,1.841-13.964,7.729-18.756,16.581l-.117.331c-1.649,9.294,1.187,14.383,6.292,19.58A13.662,13.662,0,0,0,2066.316,2779.511Zm-14.169-22.965c4.494-8.224,10.633-13.674,17.3-15.352a16.666,16.666,0,0,1,13.6,2.327c7.611,5.036,8.6,11.792,3.111,21.254-3.8,6.557-10.955,11.549-17.8,12.421-2.989.383-7.239.142-10.488-3.158C2053.17,2769.249,2050.721,2764.841,2052.147,2756.546ZM2239.3,2912.9c4.95-5.222,5.691-12.212,2.086-19.683-4.827-10-15.914-17.726-24.251-16.939-8.238.813-22.13,10.192-23.7,20.219a17.91,17.91,0,0,0-.214,2.353c-.121,6.422,3.99,8.928,8.345,11.583,1.083.658,2.2,1.342,3.305,2.111,5.255,3.7,12.005,7.6,19.147,7.6C2229.047,2920.14,2234.272,2918.2,2239.3,2912.9Zm-33.2-2.144c-1.144-.8-2.3-1.506-3.422-2.188-4.135-2.519-7.4-4.511-7.3-9.673a15.673,15.673,0,0,1,.188-2.06c1.4-8.946,14.375-17.658,21.778-18.386a10.223,10.223,0,0,1,1.033-.052c7.28,0,16.873,7.089,21.064,15.775,1.842,3.818,4.07,11.129-1.706,17.222C2229.238,2920.362,2219.482,2920.17,2206.1,2910.754Zm-219.543-110.184a15.321,15.321,0,0,0,10.034,3.75c10.35,0,20.807-9.911,26.577-15.374l1.411-1.332a10.753,10.753,0,0,0,3.5-9.335c-.644-5.912-5.616-12.267-12.969-16.583-5.46-3.208-14.56-3.282-22.145-.181-5.568,2.275-9.258,5.779-10.395,9.865-2,7.2-3.435,21.438,3.9,29.1Zm-1.9-28.6c.938-3.374,4.263-6.446,9.126-8.434,7-2.864,15.328-2.846,20.243.042,6.777,3.977,11.339,9.7,11.912,14.94a8.538,8.538,0,0,1-2.825,7.5l-1.422,1.34c-7.213,6.834-22.21,21.033-33.708,11.573C1981.378,2791.958,1982.781,2778.708,1984.655,2771.969Zm280.666,40.177c-5.73-3.663-13.99-4.356-21.045-1.772-5.428,1.992-9.219,5.62-10.671,10.221l-.508,1.58c-2.242,6.893-5.03,15.472,3.584,22.428l.227.139c5.5,2.524,10.066,3.57,13.9,3.57,9.36,0,14.321-6.24,17.7-12.4C2272.624,2828.427,2275.979,2818.954,2265.321,2812.146Zm1.295,22.713c-6.565,11.946-14.887,14.254-28.688,7.956-7.319-5.993-5.009-13.092-2.778-19.963l.514-1.6c1.245-3.942,4.565-7.078,9.351-8.832,6.346-2.325,14.044-1.7,19.149,1.563C2273.221,2819.771,2270.694,2827.437,2266.615,2834.86Zm-25.36-118.82a20.483,20.483,0,0,0-16.469-3.626c-6.913,1.451-13.309,6.346-17.55,13.426-4.256,7.1-5.477,15.124-3.191,20.936,1.777,4.513,5.575,7.7,10.981,9.222a26.57,26.57,0,0,0,7.239.913q.516,0,1.044-.013a26.623,26.623,0,0,0,23.161-15.339c3.653-7.843,2.814-16.106-2.3-22.672A13.939,13.939,0,0,0,2241.256,2716.04Zm3.26,24.592a24.447,24.447,0,0,1-21.264,14.086,25.224,25.224,0,0,1-7.643-.819c-4.8-1.351-8.011-4.016-9.552-7.928-2.043-5.191-.882-12.474,3.028-19,3.934-6.564,9.815-11.092,16.142-12.421a18.475,18.475,0,0,1,3.793-.4,18.739,18.739,0,0,1,10.986,3.672,11.837,11.837,0,0,1,2.466,2.412C2247.064,2726.125,2247.805,2733.563,2244.516,2740.632Zm-120.5,152.961c8.981-2.75,13.646-8.544,13.493-16.76-.063-3.395-.874-11.68-7.01-15.3l-.017-.011c-6.179-3.489-11.222-.619-16.1,2.159-4.526,2.575-10.23,6.845-11.7,12.543a12.338,12.338,0,0,0,1.728,9.712c2.643,4.361,10.758,8.048,16.631,8.048A10.262,10.262,0,0,0,2124.015,2893.593Zm-17.761-8.786a10.234,10.234,0,0,1-1.483-8.028c1.28-4.96,6.509-8.826,10.672-11.195,3.205-1.826,6.117-3.485,9.243-3.485a9.483,9.483,0,0,1,4.731,1.323c5.328,3.151,5.884,11.092,5.929,13.452.136,7.241-3.889,12.162-11.96,14.634C2118.752,2892.924,2108.819,2889.043,2106.254,2884.807Zm234.209,91.445-.018-.011c-6.179-3.493-11.225-.616-16.1,2.16-4.524,2.578-10.231,6.846-11.7,12.547a12.355,12.355,0,0,0,1.731,9.71c2.644,4.36,10.758,8.046,16.631,8.046a10.244,10.244,0,0,0,2.974-.395c8.983-2.75,13.648-8.544,13.495-16.762C2347.408,2988.156,2346.6,2979.871,2340.463,2976.252Zm-7.114,29.972c-4.626,1.419-14.562-2.462-17.13-6.7a10.232,10.232,0,0,1-1.485-8.026c1.28-4.96,6.51-8.825,10.674-11.2,3.206-1.826,6.119-3.484,9.245-3.484a9.446,9.446,0,0,1,4.727,1.323c5.328,3.153,5.886,11.094,5.932,13.455C2345.448,2998.83,2341.423,3003.752,2333.349,3006.224Zm101.464-73.671-.018-.011c-6.184-3.493-11.225-.619-16.1,2.157-4.526,2.576-10.231,6.845-11.7,12.546a12.329,12.329,0,0,0,1.729,9.711c2.641,4.362,10.756,8.049,16.631,8.049a10.242,10.242,0,0,0,2.976-.4c8.98-2.75,13.644-8.544,13.49-16.76C2441.76,2944.455,2440.949,2936.17,2434.813,2932.553Zm-7.11,29.97c-4.639,1.414-14.565-2.462-17.135-6.7a10.223,10.223,0,0,1-1.481-8.028c1.278-4.96,6.506-8.826,10.669-11.195,3.206-1.824,6.12-3.482,9.245-3.482a9.461,9.461,0,0,1,4.727,1.322c5.331,3.151,5.888,11.092,5.931,13.452C2439.8,2955.126,2435.775,2960.051,2427.7,2962.523Zm-365.347,135.628-.017-.011c-6.174-3.49-11.221-.619-16.1,2.16-4.524,2.575-10.23,6.844-11.7,12.545a12.334,12.334,0,0,0,1.731,9.71c2.639,4.361,10.754,8.048,16.627,8.048a10.268,10.268,0,0,0,2.979-.4c8.981-2.748,13.646-8.545,13.495-16.76C2069.3,3110.053,2068.491,3101.77,2062.356,3098.151Zm-7.113,29.97c-4.615,1.425-14.565-2.458-17.13-6.7a10.226,10.226,0,0,1-1.485-8.028c1.28-4.959,6.51-8.825,10.674-11.194,3.208-1.826,6.12-3.484,9.245-3.484a9.475,9.475,0,0,1,4.726,1.323c5.33,3.156,5.888,11.092,5.933,13.452C2067.339,3120.728,2063.316,3125.65,2055.243,3128.121Zm207.594-51.4-.015-.011c-6.176-3.489-11.225-.619-16.106,2.159-4.524,2.576-10.228,6.845-11.7,12.546a12.345,12.345,0,0,0,1.729,9.713c2.644,4.36,10.758,8.046,16.629,8.046a10.227,10.227,0,0,0,2.976-.4c8.984-2.748,13.648-8.544,13.495-16.758C2269.782,3088.619,2268.976,3080.336,2262.837,3076.717Zm-7.113,29.97c-4.632,1.429-14.565-2.465-17.131-6.7a10.227,10.227,0,0,1-1.483-8.028c1.28-4.96,6.509-8.826,10.672-11.195,3.208-1.826,6.121-3.482,9.247-3.482a9.461,9.461,0,0,1,4.727,1.323c5.328,3.151,5.886,11.09,5.929,13.449C2267.821,3099.294,2263.8,3104.215,2255.723,3106.687Zm-397.5-399.653c-.875-5.4-9.833-12.694-16.131-14.413-10.047-2.737-23.535,1.247-30.1,8.878-3.932,4.567-4.859,10-2.609,15.29l.071.139c4.9,8.078,11.6,10.567,18.177,10.567,7.438,0,14.714-3.19,19.02-5.084C1851.148,2720.437,1859.131,2712.588,1858.225,2707.033Zm-46.886,8.823c-2.393-5.71-.082-10.179,2.287-12.931,5.977-6.943,18.762-10.7,27.9-8.2,5.994,1.635,13.888,8.5,14.565,12.663.642,3.938-6.145,11.2-10.46,13.1C1837.572,2724.02,1820.813,2731.37,1811.339,2715.857Zm151.8-61.1a15.312,15.312,0,0,0,7.3,1.831c8.443,0,16.419-6.631,20.465-11.546,6.221-7.56,10.65-22.757,6.822-30.291a15.327,15.327,0,0,0-12.051-8.754c-6.5-.746-13.815,2.471-18.622,8.207l-.772.917c-6.548,7.8-10.875,12.951-12.831,25.349l-.007.063C1952.4,2651.242,1963.089,2654.757,1963.143,2654.757Zm-7.548-13.98c1.861-11.769,5.806-16.468,12.34-24.248l.772-.92c4.351-5.195,10.912-8.119,16.724-7.447,4.531.523,8.117,3.145,10.371,7.579,3.314,6.523-.908,21.038-6.56,27.907-4.792,5.818-15.468,14.3-25.275,9.1C1963.874,2652.723,1954.735,2649.775,1955.595,2640.777ZM1677.4,2438.837c4.124-.806,7.423-3.87,10.088-9.366,3.672-7.572,2.272-21.854-2.722-27.784-4.187-4.979-8.78-7.313-13.693-7.039-8.2.514-17.13,8.372-27.294,24.03l-.51.78.692.625c14.476,13.119,24.021,18.974,31.137,18.974A11.9,11.9,0,0,0,1677.4,2438.837Zm-6.193-42.015c4.254-.25,8.134,1.787,11.912,6.272,4.459,5.3,5.73,18.6,2.428,25.418-2.348,4.84-5.149,7.519-8.56,8.188-6.4,1.261-15.956-4.176-30.891-17.613C1655.525,2404.765,1663.972,2397.275,1671.211,2396.822Zm423.532-3.186c2.237,7.847,12.991,19.3,19.49,19.3a4.75,4.75,0,0,0,.623-.04c10.358-1.271,18.036-6.315,21.617-14.206,3.843-8.464,2.449-19.4-3.638-28.539l-.026-.036c-5.235-7.22-13.006-9-21.309-4.895C2101.425,2370.2,2091.907,2383.7,2094.743,2393.636Zm17.709-26.453a17.526,17.526,0,0,1,7.613-1.94c3.6,0,7.572,1.445,10.99,6.143,5.659,8.512,6.984,18.625,3.454,26.4-3.258,7.176-10.328,11.774-19.915,12.95-4.87.595-15.574-9.98-17.774-17.7C2094.533,2385.015,2102.276,2372.208,2112.453,2367.183Zm-139.381,353.882-.179-.294c-15.116-17.664-27.078-15.891-31.507-14.308-5.676,2.02-9.608,7.054-9.781,12.439-1.44,12.807,14.742,18.926,22.8,19.881a9.331,9.331,0,0,0,1.044.054c4.548,0,12.611-2.8,16.367-7.808A9.7,9.7,0,0,0,1973.071,2721.065Zm-2.977,8.649c-3.729,4.975-12.087,7.293-15.433,6.9-7.364-.874-22.167-6.293-20.9-17.558.149-4.581,3.5-8.82,8.346-10.545a15.07,15.07,0,0,1,5.041-.823c5.447,0,13.871,2.593,23.991,14.367A7.5,7.5,0,0,1,1970.094,2729.714Zm343.844,83.23a17.465,17.465,0,0,0,8.633,2.327,17.954,17.954,0,0,0,5.825-.994c6.589-2.253,12.658-8.27,15.844-15.709,3.722-8.7,4.425-15.483,2.146-20.735-1.788-4.121-5.441-7.183-10.86-9.1-6.392-2.266-12.71-1.942-17.785.908-5,2.809-8.525,7.9-9.921,14.328l-.245,1.118c-1.9,8.656-4.273,19.425,6.221,27.765Zm-4.252-27.388.244-1.122c1.264-5.814,4.412-10.393,8.863-12.895,4.531-2.543,10.222-2.815,16.017-.754,4.831,1.713,8.061,4.378,9.6,7.919,2.025,4.67,1.323,10.885-2.151,19-2.953,6.891-8.528,12.452-14.552,14.509a15.208,15.208,0,0,1-12.639-1.126C2305.716,2803.6,2307.734,2794.427,2309.687,2785.556Zm-371.458-192.967c8.761-1.717,14.441-10.859,17.048-16.156,5.335-10.844,3.605-18.713-5.142-23.385a17.15,17.15,0,0,0-14-.677c-6.649,2.367-12.26,7.956-15.39,15.333-2.153,5.075-3.934,14.18-.013,18.454l.076.074c4.931,4.416,9.8,6.64,14.53,6.64A14.993,14.993,0,0,0,1938.229,2592.589Zm-15.492-24.03c2.89-6.817,8.039-11.968,14.121-14.136a15.061,15.061,0,0,1,12.264.547c7.726,4.13,9.066,10.642,4.217,20.5-2.428,4.936-7.674,13.448-15.524,14.986-4.913.95-10.131-.994-15.527-5.812C1919.579,2581.617,1920.383,2574.107,1922.737,2568.56Zm190.431,131.3a19.184,19.184,0,0,0,9.79-2.531,12.989,12.989,0,0,0,6.517-10.057l0-.008c1.135-11.666-4.45-18.737-7.928-21.075a7.615,7.615,0,0,0-6.212-1.188c-5.177,1.209-9.6,7.241-12.394,12.088-3.582,6.207-4.7,12.678-2.92,16.891a6.852,6.852,0,0,0,4.715,4.212A22.06,22.06,0,0,0,2113.168,2699.86Zm-11.158-6.734c-1.517-3.594-.445-9.316,2.8-14.943,3.649-6.324,7.561-10.253,11.016-11.061a5.753,5.753,0,0,1,1.329-.159,5.618,5.618,0,0,1,3.193,1.039c2.868,1.924,8.012,8.383,6.977,19.041a10.927,10.927,0,0,1-5.471,8.412c-4.494,2.691-10.888,2.972-16.454.671A4.819,4.819,0,0,1,2102.01,2693.126Zm-44.433,174.108c-4.347-3.074-8.545-4.13-12.453-3.138-7.079,1.791-11.867,9.935-14.852,15.9-3.534,7.063-4.062,13.888-1.483,19.218,2.233,4.618,6.61,7.7,12.654,8.913a23.788,23.788,0,0,0,4.675.445c9.044,0,19.45-4.6,23.405-13.078a17.377,17.377,0,0,0,.672-1.663C2073.542,2884.135,2064.646,2872.226,2057.577,2867.233Zm10.579,25.885a14.531,14.531,0,0,1-.588,1.447v0c-4.23,9.074-16.707,13.234-25.7,11.428-5.359-1.077-9.206-3.748-11.134-7.732-2.274-4.7-1.751-10.841,1.47-17.281,2.795-5.587,7.232-13.2,13.449-14.773a9.779,9.779,0,0,1,2.408-.3c2.6,0,5.335,1.031,8.279,3.112C2063.124,2873.813,2071,2884.857,2068.156,2893.118Zm-144.608-11.7c-9.823,5.773-15.259,20.694-12.818,28.864,2.192,7.335,14.135,16.145,21.683,16.145.171,0,.341,0,.508-.015,11.03-.616,20.34-6.659,23.715-15.4,2.89-7.479.958-15.483-5.3-21.959C1938.633,2875.667,1928.476,2878.522,1923.548,2881.416Zm31.074,28.8c-3.07,7.948-11.633,13.448-21.819,14.017-6.569.3-18.066-8.091-20.005-14.585-2.17-7.272,2.966-21.138,11.837-26.351a15.079,15.079,0,0,1,7.721-2.179c5.571,0,11.474,3.175,17.416,9.44l.007,0C1955.426,2896.4,1957.19,2903.565,1954.622,2910.218Zm220.868-118.936c-11.058-3.385-19.781,1.227-26.693,14.095-4.295,7.987,1.022,16.268,4.271,19.029a7.758,7.758,0,0,0,2.069,1.253l.986.416c2.948,1.244,6.55,2.768,10.533,2.768,5.213,0,11.084-2.6,17.011-11.837a19.171,19.171,0,0,0,1.932-16.335A14.909,14.909,0,0,0,2175.49,2791.282Zm6.364,24.54c-9.476,14.762-18.025,11.149-24.895,8.242l-1-.421h0a5.53,5.53,0,0,1-1.494-.906c-2.7-2.288-7.39-9.582-3.768-16.322,5.08-9.449,10.931-14.023,18.11-14.023a20.67,20.67,0,0,1,6.057.977,12.806,12.806,0,0,1,8.707,8.05A16.9,16.9,0,0,1,2181.854,2815.822Zm229.428-286.641c-7.246,1.92-12.369,8.782-15.391,14.2-4.738,8.493-4.522,21.515,3.355,27.369l.035.024a14.257,14.257,0,0,0,8.216,2.493c8.369,0,17.024-6.326,21.317-10.745,4.952-5.1,7.287-11.042,6.571-16.736-.7-5.537-4.207-10.382-10.153-14.008C2420.46,2528.863,2415.774,2527.987,2411.282,2529.181Zm12.833,4.456c5.361,3.269,8.517,7.564,9.124,12.419.631,5.019-1.489,10.325-5.97,14.939-6.162,6.344-18.365,13.7-26.756,7.985-6.834-5.1-6.93-17.015-2.739-24.534,2.819-5.049,7.544-11.432,14.059-13.16C2415.728,2530.249,2419.864,2531.044,2424.115,2533.638Zm-336.959,66.775a11.979,11.979,0,0,0-11.041-.088c-4.611,2.4-8.216,8.1-9.414,14.889-1.425,8.082-2.211,24.738,5,29.918l.168.1a18.35,18.35,0,0,0,7.75,1.966,11.307,11.307,0,0,0,5.7-1.482c7.045-4.012,9.623-15.387,10.544-24.224C2096.6,2614.453,2092.508,2602.971,2087.156,2600.413Zm6.556,20.846c-.869,8.328-3.217,19-9.457,22.559-3.067,1.748-6.891,1.573-11.379-.519-6.478-4.794-5.123-21.6-4.049-27.7,1.081-6.136,4.252-11.242,8.277-13.335a9.779,9.779,0,0,1,9.126.12C2090.353,2604.355,2094.408,2614.586,2093.712,2621.259Zm193.319-248.989-.02-.129c-1.375-10.168-10.228-18.055-23.684-21.1-12.639-2.859-28.589-.847-34.637,8.525-3.891,6.021-2.341,20.665,2.856,27.011,3.813,4.661,13,7.328,22.78,7.328a49.845,49.845,0,0,0,14.409-2.051c10.866-3.325,17.36-10.233,18.281-19.456Zm-18.924,17.5c-12.8,3.918-29.76,1.691-34.894-4.58-4.637-5.661-6.135-19.138-2.713-24.437,3.571-5.526,12.209-8.743,22.033-8.743a46.9,46.9,0,0,1,10.319,1.161c12.483,2.824,20.692,9.974,22,19.14C2283.672,2383.4,2273.863,2388,2268.107,2389.766ZM1914.551,2756.8l-.03-.08c-3.83-8.815-10.22-18.988-15.862-21.847-6.232-3.158-12.533-3.667-17.3-1.394a12.861,12.861,0,0,0-7.042,9.226c-1.143,5.119-.555,12.184,1.6,18.576,5.229,10.717,15.41,16.084,24.322,16.084a19.278,19.278,0,0,0,7.449-1.423C1915.029,2772.858,1917.6,2765.7,1914.551,2756.8Zm-36.647,3.65c-1.975-5.9-2.542-12.517-1.48-17.263a10.764,10.764,0,0,1,5.86-7.738,13.072,13.072,0,0,1,5.653-1.2,21.887,21.887,0,0,1,9.753,2.567c5.125,2.6,11.277,12.558,14.835,20.73,2.65,7.784.581,13.753-5.674,16.381C1897.883,2777.689,1884.1,2773.126,1877.9,2760.451Zm-151.951-211.478c-4.719-2-11.333-1.937-18.135.177a14.2,14.2,0,0,0-10,10.395c-1.526,6.156.592,13.282,5.4,18.15,3.9,3.955,8.363,6.006,12.805,6.006a14.693,14.693,0,0,0,5.812-1.212c7.265-3.1,12.219-11.684,12.051-20.874C1733.741,2553.883,1729.493,2550.472,1725.953,2548.973Zm-4.963,31.51c-5.438,2.314-11.2.783-16.244-4.326-4.282-4.339-6.178-10.654-4.831-16.086a12.112,12.112,0,0,1,8.54-8.841,32.34,32.34,0,0,1,9.485-1.541,18.544,18.544,0,0,1,7.178,1.29c4.285,1.817,6.5,5.409,6.6,10.675C1731.873,2569.978,1727.459,2577.72,1720.99,2580.484Zm253.276-260.619c-.361,7.174,4.712,14.259,14.284,19.946l.168.081a26.456,26.456,0,0,0,9.4,1.815c11.912,0,20.087-9.157,24.313-15.487,4.323-6.483,5.817-13.1,4.206-18.63-1.4-4.8-5.086-8.629-10.672-11.066-6.675-2.914-20.814,2.271-22.712,3.156C1978.045,2306.735,1974.532,2314.55,1974.266,2319.864Zm40.845-21.341c4.976,2.17,8.242,5.518,9.455,9.678,1.424,4.9.03,10.867-3.927,16.8-4.892,7.331-15.419,18.746-31.072,12.884-8.664-5.171-13.454-11.7-13.142-17.911.342-6.756,6.474-13.088,17.736-18.316C1996.565,2300.542,2009.684,2296.16,2015.111,2298.524Zm84.268-21.6c-5.166-3.1-12.768-6.315-19.679-4-4.405,1.475-7.771,4.975-10,10.4l-.6,1.438c-3.281,7.825-8.776,20.918,3.867,28.316l.177.083a33.863,33.863,0,0,0,11.43,2.373c7.8,0,11.394-4.454,14.677-8.52.882-1.094,1.716-2.127,2.613-3.051,4.569-4.7,6.818-10.288,6.169-15.32C2107.44,2284.015,2104.446,2279.959,2099.38,2276.919Zm.943,25.518c-.966.994-1.87,2.114-2.747,3.2-4.315,5.345-8.776,10.876-23.6,5.5-10.89-6.439-6.07-17.926-2.879-25.531l.608-1.454c1.978-4.818,4.9-7.9,8.681-9.17,4.788-1.6,11.141-.249,17.894,3.805,4.539,2.726,7.1,6.134,7.617,10.131C2106.457,2293.285,2104.425,2298.212,2100.322,2302.437Zm-144.955,196.6a18.953,18.953,0,0,0,8.787,2.1,27.221,27.221,0,0,0,12.373-3.305l.158-.1c15.667-11.748,11.087-21.877,7.747-29.278-.5-1.1-.977-2.157-1.358-3.162-2.256-5.943-8.082-10.761-15.2-12.574-6.51-1.652-12.9-.486-17.083,3.144-5.211,4.52-8.659,12.755-8.985,21.7C1943.321,2487.4,1948.39,2495.43,1955.368,2499.032Zm-3.164-41.518a14.993,14.993,0,0,1,9.915-3.356,21.256,21.256,0,0,1,5.229.671c6.448,1.641,11.7,5.949,13.709,11.242.4,1.041.89,2.137,1.407,3.286,3.2,7.085,7.185,15.9-7,26.569-7.029,3.589-13.637,3.992-19.112,1.163-6.268-3.233-11.024-10.845-12.4-19.654C1944.27,2469.286,1947.433,2461.653,1952.2,2457.515ZM2014,2855.13c-3.6-8.363-8.458-13.375-14.437-14.895-7.14-1.819-15.9,1.366-26.064,9.44l-.071.062c-3.137,2.972-3.128,8.447.026,13.944a26.565,26.565,0,0,0,23.278,12.955,33.776,33.776,0,0,0,9.885-1.538c2.542-.779,4.5-4.332,5.443-6.385C2013.989,2864.5,2015.422,2858.445,2014,2855.13Zm-3.9,12.668c-1.3,2.84-2.877,4.838-4.109,5.215-14.5,4.437-25.85-2.04-30.662-10.421-2.62-4.57-2.8-8.972-.449-11.236,9.593-7.611,17.712-10.641,24.157-9.009,5.3,1.348,9.665,5.941,12.983,13.65C2012.963,2858.2,2012.117,2863.385,2010.092,2867.8Zm63.213-59.592c-12.144.863-15.658,7.581-16.674,11.51-1.664,6.431,1.022,14.265,6.677,19.489a21.27,21.27,0,0,0,14.634,5.775,24.757,24.757,0,0,0,8.384-1.517c2.771-1,4.885-5.313,5.666-7.124,1.79-4.16,3-9.737,1.675-12.829C2089.093,2812.874,2082.083,2807.579,2073.3,2808.206Zm16.7,27.264c-1.349,3.134-3.08,5.464-4.41,5.943-7.641,2.739-15.237,1.355-20.831-3.812-5.084-4.7-7.514-11.663-6.048-17.335,1.5-5.806,6.734-9.318,14.736-9.885,9.816-.723,15.317,7.228,18.226,14C2092.582,2826.468,2091.879,2831.133,2090.01,2835.47Zm173.545-611.748a45.84,45.84,0,0,0,10.955-1.461c6.485-1.606,20.087-9.167,18.271-21.227-1.882-10.094-14.915-15.69-23.128-16.294-8.175-.586-28.6,4.156-30.984,19.473l-.043.27.089.257C2243.074,2217.369,2251.406,2223.721,2263.554,2223.721Zm5.94-36.807c7.842.575,19.561,5.943,21.158,14.483,1.619,10.757-11.645,17.507-16.657,18.748-17.055,4.21-27.908-.972-33.145-15.86C2243.187,2190.778,2262.221,2186.366,2269.494,2186.915ZM2165.77,2473.039l-.14.1c-7.559,6.2-9.617,15.509-5.369,24.285,3.7,7.649,12.271,14.236,24.082,14.236a34.992,34.992,0,0,0,7.861-.924c2.317-.533,13.942-6.653,17.684-12.957,3.552-5.98,4.712-11,3.553-15.346-.979-3.666-3.659-6.742-7.961-9.146C2197.242,2468.688,2179.867,2464.833,2165.77,2473.039Zm38.664,2.153c3.77,2.1,6.1,4.731,6.919,7.805.986,3.694-.132,8.292-3.318,13.662-3.374,5.674-14.476,11.528-16.313,11.951-14.7,3.391-25.413-3.662-29.518-12.143a17.221,17.221,0,0,1,4.723-21.585C2180.237,2467.179,2196.639,2470.841,2204.434,2475.192Zm-163.76,495.258-.125-.015-.121.013c-12.862,1.41-22.109,6.084-26.034,13.158-2.76,4.975-2.7,10.83.162,16.928,5.177,11.007,14.917,20.842,25.969,20.842a19.442,19.442,0,0,0,7.842-1.689l.009,0c14.9-6.687,23.472-18.058,21.845-28.968C2068.636,2980.092,2057.59,2972.514,2040.674,2970.451Zm6.826,47.238c-12.827,5.6-25.052-5.454-30.99-18.085-2.555-5.437-2.633-10.6-.229-14.934,3.56-6.42,12.174-10.7,24.257-12.043,15.825,1.962,26.118,8.837,27.545,18.41C2069.561,3000.95,2061.483,3011.413,2047.5,3017.689ZM1906.378,2688.9a18.727,18.727,0,0,0,3.59.347c7.157,0,14.169-4.073,19.288-11.371,3.852-5.494,3.056-19.276-1.394-24.174-4.224-4.651-10.918-6-17.911-3.6a27.79,27.79,0,0,0-18.179,24.278l-.015.177.041.175A18.563,18.563,0,0,0,1906.378,2688.9Zm4.269-36.74c6.154-2.11,11.99-.979,15.619,3.016,3.774,4.151,4.494,16.778,1.225,21.441-5.471,7.8-13.209,11.593-20.705,10.144a16.4,16.4,0,0,1-12.844-12.373C1895.023,2662.621,1903.095,2654.752,1910.647,2652.162Zm218.168,107.128a15.224,15.224,0,0,0,12.662,7.446,15.085,15.085,0,0,0,5.328-1c7.488-2.813,13.944-11.227,15.016-19.571.757-5.86-1.258-10.816-5.67-13.956-5.523-3.934-19.739-2.676-24.136,2.135C2126.017,2740.9,2124.579,2752.094,2128.816,2759.29Zm17.593-27.261c3.411,0,6.623.621,8.5,1.954,4.773,3.4,5.229,8.347,4.773,11.9-.977,7.6-6.837,15.258-13.631,17.813a12.1,12.1,0,0,1-12.984-2.571,12.412,12.412,0,0,1-2.391-2.942c-3.718-6.319-2.375-16.559,2.929-22.361C2135.817,2733.4,2141.331,2732.029,2146.409,2732.029Zm-93.885-235.585a16.821,16.821,0,0,0,8.607,12.051c6.586,4.086,12.239,6.106,17.139,6.106a16,16,0,0,0,4.457-.615c5.522-1.6,9.974-6.163,14.014-14.372,2.477-5.041,2.581-11.087.285-17.026-2.546-6.594-7.78-12.11-13.659-14.394-6.156-2.39-19.906.477-23.022,5.812C2054.028,2481.294,2051.25,2489.257,2052.524,2496.444Zm9.517-21.082.13-.187c1.77-3.188,9.468-5.7,15.539-5.7a13.764,13.764,0,0,1,4.881.751c5.328,2.07,10.088,7.106,12.422,13.149,2.071,5.361,2,10.783-.212,15.27-3.746,7.618-7.775,11.828-12.671,13.242-5.233,1.515-11.744-.209-19.893-5.267l-.052-.031a14.684,14.684,0,0,1-7.533-10.534C2053.492,2489.514,2056.116,2482.164,2062.041,2475.362Zm-210.728,63.54c-3.32,2.875-4.5,7.4-3.519,13.461a48.285,48.285,0,0,0,4.033,12.267c3.1,6.709,9.481,13.591,18.108,13.591a17.638,17.638,0,0,0,4.693-.658c5.681-1.58,10.36-6.5,12.84-13.49,2.713-7.651-2.378-17.965-7.224-21.994C1873.443,2536.431,1859.237,2532.041,1851.312,2538.9Zm34.12,24.44c-2.239,6.315-6.387,10.732-11.381,12.118-9.692,2.7-16.825-4.3-20.267-11.75a46.253,46.253,0,0,1-3.86-11.7c-.854-5.256.089-9.111,2.8-11.456a13.391,13.391,0,0,1,8.975-2.977,29.826,29.826,0,0,1,17.171,6.184C1883.12,2547.3,1887.793,2556.685,1885.433,2563.343Zm-171.329-257.1a13.842,13.842,0,0,0,4.288.656c6.815,0,14.333-4.439,22.214-9.087l2.52-1.484-.365-.88c-.746-1.8-1.437-3.637-2.125-5.452-4.474-11.85-9.1-24.1-26.62-17.891-3.953,1.4-8.032,7.376-10.148,12.332-.986,2.31-2.466,6.575-1.3,9.209C1705.651,2300.609,1709.423,2304.728,1714.1,2306.244Zm-8.249-20.946c2.289-5.365,6.109-10.155,8.88-11.137a23.3,23.3,0,0,1,7.712-1.53c9.321,0,12.546,8.542,16.17,18.14.582,1.541,1.169,3.1,1.79,4.635l-.893.526c-9.148,5.4-17.792,10.484-24.75,8.24-4.062-1.316-7.4-5.049-10.222-11.415C1703.954,2291.428,1704.456,2288.569,1705.855,2285.3Zm622.706,409.4c3.593-7.869,6.494-19.58,2.838-26.689-2.894-5.629-6.668-8.922-11.541-10.061-9.429-2.2-15.665-.192-20.844,6.714-7.58,10.1-10.518,18.985-8.726,26.4,1.435,5.943,5.884,10.75,13.224,14.287l.061.028a23.975,23.975,0,0,0,8.959,1.981C2319.409,2707.365,2324.7,2703.168,2328.561,2694.7Zm-36.173-4.149c-1.63-6.749,1.18-15.017,8.35-24.57,4.652-6.2,10.051-7.911,18.632-5.906,4.278,1,7.49,3.841,10.107,8.939,3.526,6.856-.151,18.8-2.881,24.776-4.95,10.837-11.787,13.8-22.182,9.584C2297.7,2700.136,2293.658,2695.821,2292.388,2690.552ZM1758.564,2577.54c-.467,6.66,1.128,11.951,4.747,15.732,3.579,3.737,9.014,5.766,15.386,5.766.363,0,.733-.006,1.1-.019a23.151,23.151,0,0,0,16.372-7.786,19.226,19.226,0,0,0,5.147-13.923c-.411-5.5-9.52-13.832-15.723-14.37C1778.317,2562.307,1760.153,2565.585,1758.564,2577.54Zm25.171-12.5c.612,0,1.174.022,1.673.065,5.071.44,13.425,7.949,13.752,12.363a17.029,17.029,0,0,1-4.6,12.305,20.982,20.982,0,0,1-14.841,7.061c-3.619.12-10.332-.357-14.856-5.084-3.173-3.312-4.568-8.044-4.152-14C1761.975,2568.276,1776.423,2565.044,1783.736,2565.044Zm-76.956,64.534-.125-.061c-11.778-4.557-18.265-.721-21.63,3.3-6.567,7.856-5.951,21.489-2.661,27.061,2.138,3.617,9.245,6.45,13.808,6.45a7.624,7.624,0,0,0,1.971-.228c11.865-3.229,20.455-10.741,21.378-18.7C1720.061,2642.745,1718.292,2635.868,1706.78,2629.579Zm10.594,17.575c-.821,7.076-8.776,13.846-19.793,16.845-3.288.894-11.413-1.935-13.358-5.234-3.011-5.1-3.307-17.65,2.456-24.54a12.7,12.7,0,0,1,10.2-4.574,25.1,25.1,0,0,1,8.929,1.877C1714.04,2636.039,1718.035,2641.44,1717.373,2647.154Zm142.278-42.973a28.6,28.6,0,0,0-9.928,25.668l.056.225c2.929,8.108,9.074,12.523,17.366,12.523.337,0,.677-.006,1.02-.022,13.348-.566,27.526-11.809,30.956-24.55,1.4-5.217-2.631-14.5-9.894-18.268C1878.3,2596.019,1867.529,2597.632,1859.652,2604.18Zm37.384,13.273c-3.152,11.7-16.685,22.421-28.961,22.944-7.738.349-13.51-3.562-16.225-10.96a26.4,26.4,0,0,1,9.178-23.577c7.285-6.061,17.31-7.536,27.355-4.1C1894.935,2605.167,1898.1,2613.5,1897.036,2617.454ZM1971.83,2246.3a31.857,31.857,0,0,0,9.783,1.571c3.951,0,8.145-.826,11.355-3.345a14.12,14.12,0,0,0,3.865-10.678c-.383-5.518-3.9-11.292-9.915-16.268-5.369-4.439-17.7-8.813-29.862,2.95l-.177.218c-2.905,4.79-3.681,9.166-2.3,13.016C1956.965,2240.436,1965.054,2243.968,1971.83,2246.3Zm-13.179-24.291c13.59-13.038,25.571-3.836,26.894-2.742,5.549,4.587,8.791,9.822,9.13,14.731a11.752,11.752,0,0,1-3.167,8.926c-5.1,3.992-14.15,2.971-18.981,1.312-5.829-2-13.819-5.345-15.92-11.212C1955.476,2229.858,1956.161,2226.151,1958.651,2222.006Zm-66.219-16.943a9.94,9.94,0,0,0,6.824,2.591,13.026,13.026,0,0,0,2.769-.312c7.187-1.564,14.184-8.468,15.6-11.707.4-.917.886-1.9,1.4-2.929,3.182-6.452,7.544-15.287-1.775-21.955-6.99-4.749-19.1-.222-23.5,4.984-4.907,5.195-7.591,11.445-7.362,17.148A16.943,16.943,0,0,0,1892.432,2205.063Zm2.927-27.87c2.492-2.948,9.02-6.261,14.761-6.261a10.381,10.381,0,0,1,5.9,1.613c7.788,5.573,4.215,12.807,1.066,19.192-.523,1.061-1.022,2.073-1.435,3.018-1.094,2.5-7.544,9.035-14.078,10.456a8.251,8.251,0,0,1-7.7-1.77l0,0a14.836,14.836,0,0,1-5.326-10.644C1888.34,2187.68,1890.809,2182.008,1895.359,2177.193Zm-102.91,67.895a18.944,18.944,0,0,0,9.894,3.5,7.614,7.614,0,0,0,1.615-.161c8.089-1.769,15.289-9.651,17.511-19.17,2.088-8.937-.517-17.142-7.153-22.507l-.031-.024c-5.672-4.247-12.314-4.648-18.213-1.092-8.383,5.041-13.114,16.355-11.509,27.523A18,18,0,0,0,1792.449,2245.088Zm4.731-37.58a13.906,13.906,0,0,1,7.207-2.116,14.278,14.278,0,0,1,8.592,3.075c5.944,4.82,8.272,12.214,6.385,20.292-2.038,8.732-8.564,15.946-15.868,17.543-2.055.449-6.091-.442-9.828-3.014a15.841,15.841,0,0,1-6.967-10.455C1785.216,2222.527,1789.529,2212.111,1797.18,2207.508Zm281.915-22.2.238.1a28.755,28.755,0,0,0,7.449,1.053c5.508,0,10.148-1.933,13.452-5.692,5.276-6.01,6.428-16.034,2.868-24.943-3.232-8.091-9.01-12.969-15.849-13.378-7.639-.462-15.012,4.557-19.822,13.4l0,0c-2.682,4.988-3.435,10.033-2.175,14.589C2066.84,2176.15,2071.5,2181.153,2079.1,2185.306Zm-9.768-28.421c4.4-8.087,11.052-12.646,17.8-12.269,5.972.36,11.065,4.74,13.972,12.016,3.262,8.163,2.266,17.278-2.481,22.685-2.912,3.317-8.5,6.694-18.6,4.01-7-3.846-11.266-8.381-12.675-13.48C2066.215,2165.792,2066.885,2161.431,2069.328,2156.885Zm-377.77,343.179c-.847-5.173-9.562-10.782-14.335-11.233a20.79,20.79,0,0,0-22.316,14.958c-1.736,6.481-.169,15.006,9.439,19.521a24.543,24.543,0,0,0,12.165,3.618,15.008,15.008,0,0,0,8.707-2.6C1691.186,2520.173,1693.439,2511.554,1691.558,2500.065Zm-26.172,21.335-.086-.046c-8.428-3.939-9.816-11.362-8.307-17a18.528,18.528,0,0,1,18.021-13.452c.655,0,1.323.031,2.006.1,3.835.362,11.761,5.481,12.407,9.418,1.738,10.608-.194,18.464-5.44,22.121C1679.308,2525.8,1672.184,2525.366,1665.386,2521.4Zm167.516-86.947c-2.548,3.339-6.091,10.58-1.178,21.565,2.49,5.561,6.057,9.793,10.313,12.24a17.944,17.944,0,0,0,8.892,2.685,12.49,12.49,0,0,0,3.824-.593c3.644-1.161,6.686-3.994,8.8-8.189a28.654,28.654,0,0,0,1.433-20.944c-2.527-7.52-7.868-12.485-14.655-13.624A18.325,18.325,0,0,0,1832.9,2434.452Zm14.478-4.925a15.48,15.48,0,0,1,2.589.216c6.066,1.015,10.67,5.339,12.965,12.173a26.326,26.326,0,0,1-1.316,19.257c-1.284,2.554-3.629,5.86-7.513,7.1-3.281,1.04-6.98.4-11-1.909-4.872-2.8-7.81-7.66-9.414-11.245-3.3-7.372-2.972-14.241.921-19.34A16.162,16.162,0,0,1,1847.381,2429.528Zm77.838,66.545c-4.515-1.523-8.419-1.887-11.938-1.113a16.2,16.2,0,0,0-10.488,7.8c-2.568,4.587-3.009,14.738-.947,21.726,1.191,4.028,3.126,6.84,5.594,8.133a18.4,18.4,0,0,0,8.383,1.754c5.734,0,12.115-1.872,16.289-5.215h0a13.528,13.528,0,0,0,2.585-2.7c4.641-6.565,4.961-17.082.714-23.444C1933.372,2499.968,1930.039,2497.7,1925.218,2496.073Zm7.719,29.123a11.2,11.2,0,0,1-2.17,2.256c-5.681,4.548-16.741,6.156-22.331,3.229-1.937-1.011-3.5-3.369-4.518-6.817-2.066-7-1.306-16.351.756-20.031a13.992,13.992,0,0,1,9.063-6.745,15.09,15.09,0,0,1,3.258-.342,23.758,23.758,0,0,1,7.539,1.395c4.349,1.464,7.321,3.458,9.083,6.093C1937.341,2509.809,1937.029,2519.407,1932.937,2525.2ZM1922.3,2334.258c-5.722-1.486-10.886-.856-15.345,1.876-4.954,3.038-8.806,8.787-10.3,15.376a28.148,28.148,0,0,1-1.005,2.97c-2.12,5.69-6.068,16.278,2.131,23.605l.309.192a16.777,16.777,0,0,0,6.394,1.362c9,0,14.532-8.738,18.429-14.895l1.016-1.6c.078-.121,7.63-11.981,5.078-21.206A11.776,11.776,0,0,0,1922.3,2334.258Zm-.186,27.7-1.027,1.612c-4.851,7.667-10.884,17.2-22.013,12.759-6.9-6.328-3.465-15.557-1.405-21.085a28.512,28.512,0,0,0,1.089-3.25c1.37-6.03,4.853-11.262,9.318-14a17,17,0,0,1,13.484-1.7,9.628,9.628,0,0,1,5.36,6.232C1928.822,2349.4,1924.094,2358.887,1922.112,2361.96Zm-14.984-92.63c-5.242,3-15,8.59-13.35,19.51l.115.351c3.45,6.524,8.6,8.483,13.938,8.483,4.8,0,9.744-1.584,13.724-2.861l1.8-.573c.134-.043,13.473-4.289,17.364-13.018a11.891,11.891,0,0,0-.27-10.225c-3.452-4.84-7.816-7.686-12.98-8.464-5.748-.865-12.349,1.065-17.682,5.165A28.473,28.473,0,0,1,1907.128,2269.329Zm20.021-4.642a17.114,17.114,0,0,1,11.437,7.394,9.72,9.72,0,0,1,.16,8.246c-2.9,6.509-12.557,10.746-16.03,11.83l-1.818.578c-8.6,2.754-19.283,6.178-25.007-4.406-1.288-9.319,7.213-14.189,12.306-17.107a28.165,28.165,0,0,0,2.9-1.793C1915.976,2265.682,1921.983,2263.906,1927.149,2264.688Zm-.3,134.479-.253-.1c-7.92-2-15.148-.38-19.819,4.441-4.9,5.051-6.366,12.861-4.027,21.43,1.133,4.146,9.187,9.22,14.007,9.22a5.275,5.275,0,0,0,1.325-.155c10.425-2.711,18.691-10.423,19.653-18.34C1938.508,2409.285,1934.641,2403.425,1926.846,2399.167Zm8.741,16.231c-.86,7.063-8.449,14-18.049,16.494-3.366.872-11.778-4.13-12.708-7.534-2.127-7.8-.856-14.844,3.489-19.327a16.049,16.049,0,0,1,11.813-4.618,24.21,24.21,0,0,1,5.8.737C1932.918,2405,1936.251,2409.923,1935.587,2415.4Zm-188.976,27.861c-7.472,3.151-11.809,9.59-11.6,17.219.188,6.858,4.163,12.842,9.894,14.893l.08.025a25.783,25.783,0,0,0,6.755.961,15.778,15.778,0,0,0,11.93-4.845c4.58-4.909,5.769-12.916,3.1-20.892-.843-2.528-4.44-4.489-6.509-5.43C1756.046,2443.265,1749.97,2441.835,1746.611,2443.259Zm18.116,8.054c2.41,7.215,1.4,14.382-2.631,18.706-3.722,3.99-9.578,5.158-16.506,3.284-4.872-1.765-8.253-6.936-8.417-12.883-.184-6.695,3.655-12.36,10.274-15.152,2.285-.965,7.416-.15,11.929,1.906C1762.263,2448.49,1764.314,2450.077,1764.727,2451.313Zm54.114,35.213c-11.4-3.127-21.7.2-27.583,8.893a26.452,26.452,0,0,0,.475,30.088l.246.24c5.4,3.814,10.112,5.13,14.037,5.13a17.1,17.1,0,0,0,8.421-2.215c10.14-5.668,14.984-20.706,14.389-31.975C1828.623,2492.722,1821.917,2487.372,1818.841,2486.526Zm-5.449,40.23c-5.884,3.288-12.8,2.358-20.027-2.691a24.227,24.227,0,0,1-.318-27.416c5.415-8.011,14.61-10.94,25.225-8.02,2.345.643,8.253,5.4,8.4,8.175C1827.228,2507.414,1822.763,2521.517,1813.392,2526.756Zm-24.039,139.9c10.343-2.521,18.732-16.1,19.374-18.605,2.966-11.556.428-19.082-8.153-23.753-9.775-3.369-19.992,2.033-24.491,5.751-3.638,3.007-6.227,8.507-6.755,14.354a22.351,22.351,0,0,0,4.9,16.547l.019.021c3.59,4.058,7.533,6.1,11.757,6.1A14.091,14.091,0,0,0,1789.354,2666.657Zm-13.484-7.126a20.178,20.178,0,0,1-4.388-14.931c.477-5.285,2.764-10.214,5.974-12.866,4.15-3.435,13.54-8.43,22.253-5.448,7.5,4.1,9.638,10.646,6.926,21.221-.387,1.508-8.257,14.707-17.787,17.034C1784.172,2665.668,1779.819,2663.99,1775.87,2659.531Zm27.277,91.655c-8.99-.946-18.27,4.075-20.727,11.19-2.051,5.943.972,12.04,8.294,16.728,2.123,1.357,7.349,2.044,12.057,2.044a24.233,24.233,0,0,0,7.723-.946,13.877,13.877,0,0,0,8.6-15.152C1818.269,2759.26,1813.6,2752.156,1803.146,2751.186Zm6.554,26.989c-3.6,1.428-15.094.839-17.824-.911-6.5-4.163-9.133-9.194-7.414-14.171,1.969-5.7,9.089-9.841,16.45-9.841a18.853,18.853,0,0,1,2.019.1l.013,0c9.2.847,13.3,7,14.009,12A11.757,11.757,0,0,1,1809.7,2778.175Zm-51.292-82.323c-5.581-3.048-10.4-3.776-14.748-2.24-5.06,1.791-9.329,6.777-12.688,14.818l-.071.262c-1.8,12.008,2.042,18.279,12.829,20.972a21.519,21.519,0,0,0,5.175.621c7.135,0,14.567-3.4,17.344-10.457C1769.826,2710.74,1766.385,2700.21,1758.409,2695.852Zm5.83,23.171c-3.34,8.484-13.7,10.094-19.99,8.525-9.532-2.38-12.794-7.712-11.232-18.4,3.1-7.378,6.926-11.914,11.359-13.484,3.737-1.321,7.994-.636,13,2.1C1764.407,2701.609,1767.42,2710.945,1764.238,2719.023Zm55.1-347.285c-4.18.094-8.11,2.07-11.681,5.873l-.666.992c-1.941,2.95-4.353,6.625-3.134,10.569,1.061,3.432,4.673,6.354,11.043,8.935.311.126.644.272,1,.429a18.143,18.143,0,0,0,7.555,1.93c3.37,0,7.488-1.25,12.4-5.413,2.38-1.7,3.653-3.7,3.783-5.934.264-4.5-4.23-8.6-6.647-10.807-.34-.312-.638-.584-.869-.809C1829.351,2374.806,1824.9,2371.66,1819.339,2371.738Zm18.142,17.253c-.093,1.564-1.031,2.966-2.944,4.339-8.568,7.253-14.108,4.821-17.772,3.208-.376-.166-.729-.318-1.057-.453-5.65-2.289-8.945-4.831-9.785-7.56-.912-2.958,1.1-6.019,2.873-8.719l.5-.765c3.139-3.319,6.537-5.042,10.092-5.124,4.736-.1,8.759,2.742,11.232,5.154.246.238.562.527.923.856C1833.687,2381.886,1837.684,2385.53,1837.481,2388.99Zm-31.165-79.427a11.111,11.111,0,0,0,.255,11.469c2.2,3.576,6.271,6.111,9.947,6.111.093,0,.184,0,.275,0,3.826-.133,9.068-.313,14.781-7.333l.186-.335c1.156-3.387,1.1-6.346-.149-8.8-1.465-2.876-4.606-5.052-9.329-6.468C1814.065,2301.747,1808.131,2306.188,1806.315,2309.563Zm15.349-3.275c4.137,1.24,6.837,3.049,8.026,5.374.951,1.867.981,4.193.086,6.914-5.036,6.106-9.3,6.253-13.24,6.39-.061,0-.119,0-.179,0-2.765,0-6.15-2.157-7.948-5.084a8.886,8.886,0,0,1-.195-9.284C1809.709,2307.825,1814.7,2304.2,1821.664,2306.288Zm560.352,143.793c2.053,9.462,9.21,16.758,17.3,17.726a12.321,12.321,0,0,0,2.7.3c5.367,0,10.276-3.437,13.06-7.313,3.655-5.084,4.874-11.521,5.529-16.564.553-4.264,1.02-9.841-.29-15.16-1.377-5.583-4.615-10.107-8.877-12.4-4.918-2.656-10.146-2.273-15.12,1.1C2386.307,2424.548,2380.091,2441.2,2382.017,2450.081Zm15.5-30.51c4.327-2.937,8.67-3.267,12.892-.989,3.727,2.009,6.571,6.023,7.8,11.011,1.226,4.962.774,10.274.245,14.352-.623,4.786-1.766,10.879-5.136,15.568-2.831,3.938-8.125,7.361-13.641,6.15-8.134-.978-13.979-8.812-15.548-16.045C2382.379,2441.561,2388.335,2425.8,2397.519,2419.571Z" transform="translate(-1643.273 -2142.413)"/></svg>